<?xml version="1.0" encoding="utf-8"?>
<svg viewBox="0 0 1170 855" xmlns="http://www.w3.org/2000/svg">
  <g transform="matrix(0.1, 0, 0, -0.1, 0, 855)" fill="#000000" stroke="none">
    <path d="M2732 7428 c-9 -9 -12 -236 -12 -958 0 -840 2 -948 16 -968 14 -21 22 -22 144 -22 104 0 132 3 144 16 14 14 16 102 16 819 0 723 2 803 16 809 27 10 5578 7 5594 -4 13 -8 15 -111 18 -812 2 -741 3 -804 19 -815 11 -9 57 -13 138 -13 105 0 124 2 138 18 16 17 17 99 17 968 0 726 -3 953 -12 962 -17 17 -6219 17 -6236 0z" style="fill: rgb(0, 207, 149);"/>
    <path d="M3559 6604 c-21 -25 -21 -1083 0 -1107 12 -16 182 -17 2290 -17 1417 0 2282 4 2291 10 13 8 15 81 15 560 0 479 -2 552 -15 560 -9 6 -874 10 -2291 10 -2103 0 -2278 -1 -2290 -16z" style="fill: rgb(0, 207, 149);"/>
    <path d="M1831 5286 c-7 -9 -11 -42 -9 -88 l3 -73 45 -15 c25 -8 51 -19 58 -23 17 -12 18 -1077 0 -1095 -7 -7 -25 -12 -41 -12 -58 0 -67 -13 -67 -100 0 -68 3 -81 19 -90 12 -6 102 -10 225 -10 246 0 240 -3 234 103 -4 76 -19 97 -68 97 -14 0 -31 5 -38 12 -17 17 -17 549 0 566 8 8 51 12 125 12 108 0 115 -1 138 -25 l25 -24 0 -259 c0 -187 -3 -261 -12 -270 -7 -7 -27 -12 -44 -12 -51 0 -64 -21 -64 -104 0 -43 5 -77 12 -84 17 -17 419 -17 436 0 7 7 12 41 12 84 0 79 -13 104 -54 104 -45 0 -46 9 -46 295 0 321 -4 338 -90 426 -71 72 -113 85 -294 93 -95 4 -142 10 -148 19 -4 6 -8 112 -8 234 0 188 -2 224 -16 237 -22 22 -315 24 -333 2z" style="fill: rgb(0, 207, 149);"/>
    <path d="M6570 5281 c-5 -11 -10 -47 -10 -80 0 -65 15 -91 53 -91 13 0 33 -7 45 -16 l22 -15 0 -539 c0 -602 7 -550 -71 -564 -41 -7 -49 -27 -49 -117 0 -79 0 -79 245 -79 257 0 248 -4 239 103 -8 84 -15 97 -58 97 -18 0 -37 5 -44 12 -9 9 -12 165 -12 641 0 414 -4 635 -10 648 -10 18 -23 19 -175 19 -152 0 -165 -1 -175 -19z" style="fill: rgb(0, 207, 149);"/>
    <path d="M10102 5288 c-17 -17 -16 -174 1 -185 6 -4 32 -15 57 -23 l45 -15 3 -529 c1 -382 -1 -533 -9 -542 -6 -8 -25 -14 -41 -14 -59 0 -68 -13 -68 -98 0 -47 5 -83 12 -90 15 -15 463 -17 550 -3 114 19 229 96 284 189 50 85 54 110 55 351 l1 226 -29 65 c-58 127 -132 164 -351 175 -140 7 -144 8 -153 32 -5 13 -9 118 -9 233 0 176 -2 211 -16 224 -13 13 -43 16 -168 16 -105 0 -156 -4 -164 -12z m623 -743 c25 -24 25 -25 25 -228 0 -195 -1 -205 -23 -238 -34 -51 -78 -69 -172 -69 -50 0 -86 5 -93 12 -9 9 -12 82 -12 268 0 186 3 259 12 268 8 8 51 12 125 12 108 0 115 -1 138 -25z" style="fill: rgb(0, 207, 149);"/>
    <path d="M722 5188 c-8 -8 -12 -62 -12 -175 l0 -163 28 -11 c32 -13 127 -5 148 12 8 6 14 28 14 48 1 61 18 73 101 72 40 0 78 -6 85 -12 19 -16 21 -948 2 -967 -7 -7 -25 -12 -41 -12 -58 0 -67 -13 -67 -98 0 -47 5 -83 12 -90 15 -15 404 -17 443 -2 25 10 26 11 23 92 l-3 83 -40 8 c-76 17 -70 -27 -73 497 -1 341 1 477 9 486 15 18 162 19 176 2 6 -7 13 -30 16 -51 3 -22 11 -45 18 -53 15 -18 149 -20 167 -2 15 15 17 284 2 322 l-10 26 -493 0 c-370 0 -496 -3 -505 -12z" style="fill: rgb(0, 207, 149);"/>
    <path d="M4110 5186 c-77 -15 -114 -36 -191 -111 -80 -78 -104 -139 -104 -261 0 -84 3 -96 38 -166 21 -43 53 -90 74 -108 48 -43 143 -87 224 -104 286 -63 285 -63 333 -102 108 -91 78 -252 -56 -308 -48 -20 -357 -23 -376 -4 -7 7 -12 29 -12 50 0 27 -5 40 -19 48 -27 14 -144 13 -159 -2 -8 -8 -12 -58 -12 -159 0 -121 3 -150 16 -163 13 -14 48 -16 232 -16 302 0 388 11 471 56 96 52 138 96 183 194 39 83 40 85 36 185 -2 82 -8 110 -29 155 -55 116 -169 209 -293 237 -115 27 -191 43 -251 54 -78 15 -131 44 -147 83 -21 50 -17 139 8 173 36 49 55 53 251 53 l183 0 6 -27 c11 -53 16 -68 26 -80 14 -17 140 -17 156 -1 17 17 17 309 0 326 -16 16 -498 14 -588 -2z" style="fill: rgb(0, 207, 149);"/>
    <path d="M5030 5185 c-7 -8 -16 -83 -22 -189 -6 -96 -14 -180 -18 -186 -4 -6 -29 -14 -56 -18 l-49 -7 -3 -84 c-3 -93 1 -101 54 -101 62 0 64 -8 64 -304 l0 -267 30 -62 c36 -75 53 -96 107 -130 83 -53 271 -77 308 -40 23 22 18 188 -5 203 -8 5 -43 10 -78 10 -57 0 -67 3 -93 29 l-29 29 0 246 c0 282 -6 266 99 266 83 0 101 18 101 99 0 33 -4 71 -10 85 -9 25 -13 26 -80 26 -115 0 -110 -9 -110 200 0 149 -3 181 -16 194 -21 22 -176 23 -194 1z" style="fill: rgb(0, 207, 149);"/>
    <path d="M8025 5183 c-14 -13 -16 -31 -13 -86 4 -76 19 -97 67 -97 59 -1 56 23 56 -503 0 -376 -3 -487 -13 -499 -7 -9 -30 -18 -53 -22 -48 -8 -59 -29 -56 -111 2 -43 7 -61 22 -71 28 -21 937 -21 954 0 8 9 11 64 9 172 l-3 159 -76 3 c-89 3 -103 -5 -113 -67 -5 -31 -12 -42 -29 -46 -12 -3 -105 -4 -207 -3 l-185 3 -3 487 -2 488 27 6 c90 20 93 23 93 101 0 109 13 103 -240 103 -191 0 -221 -2 -235 -17z" style="fill: rgb(0, 207, 149);"/>
    <path d="M5539 4788 c-17 -6 -19 -17 -19 -87 0 -87 3 -91 59 -101 58 -9 61 -23 61 -309 0 -212 3 -263 17 -309 20 -63 78 -134 134 -163 79 -40 252 -43 342 -7 41 16 49 -1 44 -93 -3 -58 -9 -83 -25 -106 -36 -51 -76 -63 -239 -71 l-148 -7 0 -105 0 -105 149 -3 c114 -2 162 1 205 14 112 32 189 85 241 165 65 100 64 97 65 605 0 497 0 494 52 494 54 0 63 14 63 100 0 43 -4 81 -9 84 -15 10 -423 15 -447 5 -22 -8 -24 -14 -24 -83 0 -79 6 -90 55 -102 65 -15 65 -14 65 -264 l0 -226 -25 -34 c-38 -52 -78 -69 -162 -70 -66 0 -73 2 -92 26 -20 25 -21 39 -21 284 0 194 3 260 13 268 6 6 30 14 52 18 22 4 43 12 47 18 9 13 10 112 2 143 -6 22 -9 22 -221 25 -118 2 -223 0 -234 -4z" style="fill: rgb(0, 207, 149);"/>
    <path d="M3083 4769 c-60 -23 -118 -76 -153 -139 -23 -43 -24 -55 -28 -242 -6 -296 9 -363 106 -475 56 -65 138 -108 232 -122 97 -14 390 -7 401 10 5 8 9 51 9 96 0 117 9 113 -225 113 l-193 0 -32 27 c-63 52 -58 106 9 118 20 3 97 22 172 41 119 31 144 42 190 78 79 62 110 124 111 224 0 90 -17 135 -79 203 -69 76 -94 84 -293 86 -156 3 -181 1 -227 -18z m327 -214 c38 -20 42 -71 8 -102 -25 -22 -231 -78 -254 -69 -10 4 -14 26 -14 79 0 66 3 76 23 90 31 22 196 23 237 2z" style="fill: rgb(0, 207, 149);"/>
    <path d="M7319 4776 c-79 -28 -141 -90 -169 -169 -18 -50 -20 -83 -20 -280 0 -282 10 -318 115 -429 60 -62 109 -87 204 -104 88 -15 358 -19 395 -4 25 9 26 12 26 104 0 65 -4 97 -12 103 -7 4 -105 10 -217 13 l-203 5 -29 35 c-16 19 -29 45 -29 57 0 30 29 43 200 83 147 34 181 50 252 119 144 138 79 400 -115 465 -61 20 -342 22 -398 2z m332 -235 c25 -31 24 -44 -6 -79 -18 -21 -42 -33 -92 -46 -37 -9 -84 -21 -104 -26 -76 -20 -79 -18 -79 59 0 55 4 74 21 95 22 28 22 28 131 24 101 -3 111 -5 129 -27z" style="fill: rgb(0, 207, 149);"/>
    <path d="M9192 4778 c-8 -8 -12 -58 -12 -158 0 -100 4 -150 12 -158 7 -7 41 -12 85 -12 78 0 93 10 93 63 0 45 28 57 127 57 81 0 93 -2 116 -24 35 -32 44 -71 23 -95 -9 -10 -47 -26 -84 -35 -37 -9 -83 -21 -102 -26 -19 -5 -55 -15 -80 -21 -107 -27 -199 -94 -236 -174 -32 -67 -33 -186 -4 -251 33 -70 85 -121 144 -140 68 -22 697 -34 721 -14 16 14 21 144 7 168 -5 7 -26 15 -48 19 -21 3 -45 10 -51 16 -10 7 -13 72 -13 264 0 291 -9 346 -67 425 -25 35 -51 56 -98 78 l-63 30 -229 0 c-165 0 -232 -3 -241 -12z m454 -593 c11 -43 0 -155 -17 -166 -7 -5 -63 -9 -123 -9 -99 0 -112 2 -133 22 -26 25 -31 74 -9 103 9 12 51 28 122 46 140 35 152 36 160 4z" style="fill: rgb(0, 207, 149);"/>
    <path d="M2750 3127 l-25 -13 -3 -953 c-1 -697 1 -957 9 -967 16 -19 6218 -21 6237 -2 9 9 12 237 12 964 0 853 -2 954 -16 968 -23 23 -255 23 -278 0 -14 -14 -16 -100 -16 -799 0 -485 -4 -793 -10 -809 l-10 -26 -2799 0 c-2543 0 -2799 1 -2805 16 -3 9 -6 371 -6 805 0 776 0 789 -20 809 -18 18 -33 20 -132 20 -71 0 -122 -5 -138 -13z" style="fill: rgb(0, 207, 149);"/>
    <path d="M3565 3124 c-13 -13 -15 -84 -15 -558 0 -408 3 -545 12 -554 9 -9 533 -12 2295 -12 l2283 0 10 26 c6 15 10 233 10 550 0 512 0 524 -20 544 -20 20 -26 20 -2290 20 -2023 -1 -2271 -3 -2285 -16z" style="fill: rgb(0, 207, 149);"/>
  </g>
</svg>